#define of_width 16
#define of_height 16
static unsigned char of_bits[] = {
   0xff, 0xff, 0xff, 0xff, 0xff, 0xff, 0xff, 0xff, 0xef, 0xd5, 0x83, 0xc1,
   0x01, 0xc0, 0x00, 0xf0, 0x01, 0xc0, 0x01, 0xc1, 0x01, 0xf0, 0xc3, 0xf0,
   0xff, 0xff, 0xff, 0xff, 0xff, 0xff, 0xff, 0xff };
